<svg width="43" height="17" viewBox="0 0 43 17" fill="none" xmlns="http://www.w3.org/2000/svg">
<path d="M5.57324 11.2822C4.94434 11.8838 4.23796 12.1846 3.4541 12.1846C3.17155 12.1846 2.78646 12.1322 2.29883 12.0273C2.22135 12.0273 2.17806 12.0547 2.16895 12.1094C2.16439 12.1641 2.15983 12.221 2.15527 12.2803V15.1992C2.15527 15.541 2.35352 15.7689 2.75 15.8828C2.92318 15.9284 3.08496 15.9603 3.23535 15.9785C3.38574 16.0013 3.48145 16.0218 3.52246 16.04C3.56803 16.0583 3.59082 16.0924 3.59082 16.1426C3.59082 16.1973 3.56803 16.2292 3.52246 16.2383H0.0976562C0.0520833 16.2292 0.0292969 16.1973 0.0292969 16.1426C0.0292969 16.0605 0.136393 16.0059 0.350586 15.9785C0.842773 15.9056 1.08887 15.6458 1.08887 15.1992V7.00293C1.08887 6.81152 0.984049 6.67936 0.774414 6.60645C0.683268 6.57454 0.585286 6.54948 0.480469 6.53125C0.375651 6.50846 0.291341 6.48796 0.227539 6.46973C0.168294 6.4515 0.129557 6.43555 0.111328 6.42188C0.0976562 6.40365 0.0908203 6.36947 0.0908203 6.31934C0.0908203 6.26465 0.125 6.21908 0.193359 6.18262L1.93652 5.34863C1.97298 5.3304 2.00944 5.32129 2.0459 5.32129C2.11882 5.32129 2.15527 5.37598 2.15527 5.48535V6.35352C2.15527 6.40365 2.18034 6.42871 2.23047 6.42871C2.28516 6.42871 2.41276 6.36263 2.61328 6.23047C3.19206 5.85677 3.79362 5.66992 4.41797 5.66992C4.85547 5.66992 5.25651 5.84766 5.62109 6.20312C6.09961 6.66797 6.41862 7.3151 6.57812 8.14453C6.6237 8.38151 6.64648 8.63444 6.64648 8.90332C6.64648 9.16764 6.60319 9.44792 6.5166 9.74414C6.34342 10.332 6.02897 10.8447 5.57324 11.2822ZM3.61816 6.38086C2.99837 6.38086 2.51074 6.55859 2.15527 6.91406V10.7559C2.15527 10.9837 2.19401 11.1318 2.27148 11.2002C2.47201 11.3734 2.77962 11.5078 3.19434 11.6035C4.01465 11.7904 4.65267 11.5944 5.1084 11.0156C5.43197 10.6009 5.59375 10.0996 5.59375 9.51172C5.59375 8.36784 5.33626 7.51107 4.82129 6.94141C4.51139 6.59505 4.11035 6.4082 3.61816 6.38086ZM12.1016 10.8721C12.1016 10.9906 12.1562 11.0863 12.2656 11.1592C12.3796 11.2275 12.5094 11.2617 12.6553 11.2617C12.8011 11.2617 12.9219 11.2253 13.0176 11.1523C13.1178 11.0749 13.1862 11.0361 13.2227 11.0361C13.2591 11.0361 13.2773 11.0863 13.2773 11.1865C13.2773 11.2822 13.2318 11.3643 13.1406 11.4326C12.457 11.9339 11.9945 12.1846 11.7529 12.1846C11.4613 12.1846 11.2243 11.8815 11.042 11.2754C11.0283 11.2298 11.0169 11.2093 11.0078 11.2139C10.4427 11.6377 10.0872 11.8929 9.94141 11.9795C9.56771 12.1937 9.19173 12.2279 8.81348 12.082C8.43978 11.9362 8.16862 11.6947 8 11.3574C7.91797 11.1842 7.87695 10.9997 7.87695 10.8037C7.87695 10.4163 8.02051 10.1087 8.30762 9.88086C8.59473 9.65299 9.1416 9.43424 9.94824 9.22461C10.2217 9.15169 10.4655 9.05827 10.6797 8.94434C10.8939 8.8304 11.0055 8.75749 11.0146 8.72559C11.0283 8.69368 11.0352 8.66406 11.0352 8.63672V7.32422C11.0352 6.80924 10.8346 6.44694 10.4336 6.2373C10.3014 6.16895 10.1419 6.13477 9.95508 6.13477C9.77279 6.13477 9.58594 6.20768 9.39453 6.35352C9.20768 6.49935 9.11426 6.70671 9.11426 6.97559L9.14844 7.24219C9.12109 7.29688 8.95703 7.38802 8.65625 7.51562C8.35547 7.64323 8.18229 7.71159 8.13672 7.7207C8.0638 7.7207 8.02734 7.63411 8.02734 7.46094C8.02734 7.2832 8.07975 7.08724 8.18457 6.87305C8.28939 6.65885 8.4375 6.46289 8.62891 6.28516C9.07552 5.87044 9.58594 5.66309 10.1602 5.66309C10.7344 5.66309 11.2015 5.82259 11.5615 6.1416C11.9215 6.45605 12.1016 6.83203 12.1016 7.26953V10.8721ZM8.9502 10.6738C8.9502 10.8926 9.03451 11.084 9.20312 11.248C9.37174 11.4076 9.56315 11.4873 9.77734 11.4873C9.99609 11.4873 10.2604 11.3962 10.5703 11.2139C10.8802 11.027 11.0352 10.8356 11.0352 10.6396V9.25195C11.0352 9.20182 11.0238 9.17676 11.001 9.17676C10.9782 9.17676 10.9622 9.17904 10.9531 9.18359L9.36719 9.92188C9.20312 10.0404 9.09147 10.1406 9.03223 10.2227C8.97754 10.3047 8.9502 10.4551 8.9502 10.6738ZM18.6094 11.3984C18.5866 11.321 18.557 11.2959 18.5205 11.3232C18.484 11.346 18.3359 11.4235 18.0762 11.5557C17.224 11.9795 16.513 12.1914 15.9434 12.1914C15.3737 12.1914 14.9635 12.0091 14.7129 11.6445C14.6217 11.5078 14.5762 11.3392 14.5762 11.1387V6.96875C14.5625 6.83659 14.5033 6.72266 14.3984 6.62695C14.2572 6.50846 14.109 6.44466 13.9541 6.43555C13.8037 6.42643 13.7285 6.38086 13.7285 6.29883C13.7285 6.21224 13.765 6.15983 13.8379 6.1416L15.4033 5.69043C15.458 5.6722 15.5104 5.66309 15.5605 5.66309C15.6152 5.66309 15.6426 5.70182 15.6426 5.7793V10.3662C15.6426 10.6852 15.7839 10.9313 16.0664 11.1045C16.349 11.2777 16.709 11.3643 17.1465 11.3643C17.5885 11.3643 17.985 11.2298 18.3359 10.9609C18.4453 10.8743 18.5365 10.7786 18.6094 10.6738V6.96875C18.5957 6.83659 18.5365 6.72266 18.4316 6.62695C18.2904 6.50846 18.1423 6.44466 17.9873 6.43555C17.8369 6.42643 17.7617 6.38086 17.7617 6.29883C17.7617 6.21224 17.7982 6.15983 17.8711 6.1416L19.4365 5.69043C19.4912 5.6722 19.5436 5.66309 19.5938 5.66309C19.6484 5.66309 19.6758 5.70866 19.6758 5.7998V10.6533C19.6986 10.8538 19.7555 10.9974 19.8467 11.084C19.9378 11.1706 20.0859 11.2139 20.291 11.2139L20.6875 11.1865C20.7148 11.1865 20.7285 11.2139 20.7285 11.2686C20.7285 11.3187 20.6943 11.3597 20.626 11.3916L18.8076 12.1436C18.7529 12.1709 18.7051 12.1846 18.6641 12.1846C18.6276 12.1846 18.6094 12.1276 18.6094 12.0137V11.3984ZM24.1396 11.7402C24.3538 11.7676 24.4609 11.8223 24.4609 11.9043C24.4609 11.959 24.4382 11.9909 24.3926 12H21.3438C21.2982 11.9909 21.2754 11.959 21.2754 11.9043C21.2754 11.8223 21.3825 11.7676 21.5967 11.7402C22.0889 11.6673 22.335 11.4076 22.335 10.9609V2.43652C22.335 2.24512 22.2301 2.11296 22.0205 2.04004C21.9294 2.00814 21.8314 1.98307 21.7266 1.96484C21.6217 1.94206 21.5374 1.92155 21.4736 1.90332C21.4144 1.88509 21.3757 1.86914 21.3574 1.85547C21.3438 1.83724 21.3369 1.80306 21.3369 1.75293C21.3369 1.69824 21.3711 1.65267 21.4395 1.61621L23.1826 0.795898C23.2373 0.768555 23.2715 0.754883 23.2852 0.754883C23.3626 0.754883 23.4014 0.80957 23.4014 0.918945V10.9609C23.4014 11.4076 23.6475 11.6673 24.1396 11.7402ZM29.4102 10.8721C29.4102 10.9906 29.4648 11.0863 29.5742 11.1592C29.6882 11.2275 29.818 11.2617 29.9639 11.2617C30.1097 11.2617 30.2305 11.2253 30.3262 11.1523C30.4264 11.0749 30.4948 11.0361 30.5312 11.0361C30.5677 11.0361 30.5859 11.0863 30.5859 11.1865C30.5859 11.2822 30.5404 11.3643 30.4492 11.4326C29.7656 11.9339 29.3031 12.1846 29.0615 12.1846C28.7699 12.1846 28.5329 11.8815 28.3506 11.2754C28.3369 11.2298 28.3255 11.2093 28.3164 11.2139C27.7513 11.6377 27.3958 11.8929 27.25 11.9795C26.8763 12.1937 26.5003 12.2279 26.1221 12.082C25.7484 11.9362 25.4772 11.6947 25.3086 11.3574C25.2266 11.1842 25.1855 10.9997 25.1855 10.8037C25.1855 10.4163 25.3291 10.1087 25.6162 9.88086C25.9033 9.65299 26.4502 9.43424 27.2568 9.22461C27.5303 9.15169 27.7741 9.05827 27.9883 8.94434C28.2025 8.8304 28.3141 8.75749 28.3232 8.72559C28.3369 8.69368 28.3438 8.66406 28.3438 8.63672V7.32422C28.3438 6.80924 28.1432 6.44694 27.7422 6.2373C27.61 6.16895 27.4505 6.13477 27.2637 6.13477C27.0814 6.13477 26.8945 6.20768 26.7031 6.35352C26.5163 6.49935 26.4229 6.70671 26.4229 6.97559L26.457 7.24219C26.4297 7.29688 26.2656 7.38802 25.9648 7.51562C25.6641 7.64323 25.4909 7.71159 25.4453 7.7207C25.3724 7.7207 25.3359 7.63411 25.3359 7.46094C25.3359 7.2832 25.3883 7.08724 25.4932 6.87305C25.598 6.65885 25.7461 6.46289 25.9375 6.28516C26.3841 5.87044 26.8945 5.66309 27.4688 5.66309C28.043 5.66309 28.5101 5.82259 28.8701 6.1416C29.2301 6.45605 29.4102 6.83203 29.4102 7.26953V10.8721ZM26.2588 10.6738C26.2588 10.8926 26.3431 11.084 26.5117 11.248C26.6803 11.4076 26.8717 11.4873 27.0859 11.4873C27.3047 11.4873 27.569 11.3962 27.8789 11.2139C28.1888 11.027 28.3438 10.8356 28.3438 10.6396V9.25195C28.3438 9.20182 28.3324 9.17676 28.3096 9.17676C28.2868 9.17676 28.2708 9.17904 28.2617 9.18359L26.6758 9.92188C26.5117 10.0404 26.4001 10.1406 26.3408 10.2227C26.2861 10.3047 26.2588 10.4551 26.2588 10.6738ZM31.6523 11.3164C31.6523 11.0703 31.7389 10.8584 31.9121 10.6807C32.0853 10.4984 32.2949 10.4072 32.541 10.4072C32.7826 10.4072 32.9899 10.4961 33.1631 10.6738C33.3408 10.847 33.4297 11.0589 33.4297 11.3096C33.4297 11.5602 33.3431 11.7699 33.1699 11.9385C32.9967 12.1025 32.7871 12.1846 32.541 12.1846C32.2995 12.1846 32.0898 12.1003 31.9121 11.9316C31.7389 11.763 31.6523 11.5579 31.6523 11.3164ZM38.9531 7.09863C38.8984 7.08952 38.8187 7.0599 38.7139 7.00977C38.3356 6.83659 38.0394 6.75 37.8252 6.75C37.611 6.75 37.3854 6.88444 37.1484 7.15332C36.916 7.41764 36.7998 7.6569 36.7998 7.87109V10.9609C36.7998 11.3027 36.998 11.5306 37.3945 11.6445C37.5677 11.6901 37.7295 11.7243 37.8799 11.7471C38.0303 11.7653 38.126 11.7835 38.167 11.8018C38.2126 11.82 38.2354 11.8564 38.2354 11.9111C38.2354 11.9613 38.2126 11.9909 38.167 12H34.7422C34.6966 11.9909 34.6738 11.959 34.6738 11.9043C34.6738 11.8223 34.7809 11.7676 34.9951 11.7402C35.4873 11.6673 35.7334 11.4076 35.7334 10.9609V7.34473C35.7334 7.15332 35.6286 7.02116 35.4189 6.94824C35.3278 6.91634 35.2298 6.89128 35.125 6.87305C35.0202 6.85026 34.9359 6.82975 34.8721 6.81152C34.8128 6.79329 34.7741 6.77734 34.7559 6.76367C34.7422 6.74544 34.7354 6.71126 34.7354 6.66113C34.7354 6.60645 34.7695 6.56087 34.8379 6.52441L36.5811 5.7041C36.6357 5.67676 36.6699 5.66309 36.6836 5.66309C36.7611 5.66309 36.7998 5.71777 36.7998 5.82715V6.93457C36.7998 6.98926 36.8135 7.0166 36.8408 7.0166C36.8773 7.0166 36.9707 6.90951 37.1211 6.69531C37.554 6.08919 37.9118 5.78613 38.1943 5.78613C38.3538 5.78613 38.5977 5.84993 38.9258 5.97754C39.2585 6.10514 39.4248 6.21224 39.4248 6.29883C39.4248 6.40365 39.3724 6.56315 39.2676 6.77734C39.1628 6.99154 39.0579 7.09863 38.9531 7.09863ZM42.4326 11.7402C42.6468 11.7676 42.7539 11.8223 42.7539 11.9043C42.7539 11.959 42.7311 11.9909 42.6855 12H39.6367C39.5911 11.9909 39.5684 11.959 39.5684 11.9043C39.5684 11.8223 39.6755 11.7676 39.8896 11.7402C40.3818 11.6673 40.6279 11.4076 40.6279 10.9609V2.43652C40.6279 2.24512 40.5231 2.11296 40.3135 2.04004C40.2223 2.00814 40.1243 1.98307 40.0195 1.96484C39.9147 1.94206 39.8304 1.92155 39.7666 1.90332C39.7074 1.88509 39.6686 1.86914 39.6504 1.85547C39.6367 1.83724 39.6299 1.80306 39.6299 1.75293C39.6299 1.69824 39.6641 1.65267 39.7324 1.61621L41.4756 0.795898C41.5303 0.768555 41.5645 0.754883 41.5781 0.754883C41.6556 0.754883 41.6943 0.80957 41.6943 0.918945V10.9609C41.6943 11.4076 41.9404 11.6673 42.4326 11.7402Z" fill="white"/>
</svg>
